P3
# SPDX-License-Identifier: AGPL-3.0-or-later
# easel-ssg hello world program in Piet (PPM format)
# Outputs: "Hello"
# Run with: npiet hello.ppm
14 4
255
# Row 1: Push 72 (H), output char
255 192 192   255 192 192   255 192 192   255 192 192
255 192 192   255 192 192   255 192 192   255 192 192
255 192 192   255 192 192   255 192 192   255 192 192
192 255 255   192 255 255
# Row 2: Push 101 (e), output char
255 0 0       255 0 0       255 0 0       255 0 0
255 0 0       255 0 0       192 0 0       255 255 0
255 255 0    255 255 0     255 255 0     192 255 255
192 255 255   192 255 255
# Row 3: Push 108 (l), output char x2
255 255 0     255 255 0     255 255 0     255 255 0
255 255 0     255 255 0     255 255 0     255 255 0
255 255 0     255 255 0     192 192 0     192 255 255
192 255 255   192 255 255
# Row 4: Push 111 (o), output char, halt
0 192 0       0 192 0       0 192 0       0 192 0
0 192 0       0 192 0       0 192 0       0 192 0
0 255 0       192 255 255   192 255 255   0 0 0
0 0 0         0 0 0
